<svg version="1.1" xmlns="http://www.w3.org/2000/svg" xmlns:xlink="http://www.w3.org/1999/xlink" width="943.002" height="715.41309" viewBox="414.14541,50.5,943.002,715.41309"><defs><clipPath id="clip-1"><rect x="-1295.25989" y="-730.98655" transform="rotate(180) scale(1.04778,1.04778)" width="900" height="600" id="clip-1" fill="none"/></clipPath></defs><g id="document" fill="#ffffff" fill-rule="nonzero" stroke="#000000" stroke-width="0" stroke-linecap="butt" stroke-linejoin="miter" stroke-miterlimit="10" stroke-dasharray="" stroke-dashoffset="0" font-family="none" font-weight="none" font-size="none" text-anchor="none" style="mix-blend-mode: normal"><rect x="504" y="36.07143" transform="scale(1,1.4)" width="700" height="500" id="Shape 1 1" vector-effect="non-scaling-stroke"/></g><g fill="none" fill-rule="nonzero" stroke="none" stroke-width="1" stroke-linecap="butt" stroke-linejoin="miter" stroke-miterlimit="10" stroke-dasharray="" stroke-dashoffset="0" font-family="none" font-weight="none" font-size="none" text-anchor="none" style="mix-blend-mode: normal"><g><g id="stage"><g id="layer1 1"><g clip-path="url(#clip-1)" id="Group 1"><rect x="-1295.25989" y="-737.98655" transform="rotate(180) scale(1.04778,1.04778)" width="900" height="600" id="Shape 1" fill="#2b4f6b"/><path d="M1357.14453,541.68701l-11.21122,-7.02011c-11.10644,-6.91533 -33.52889,-20.95556 -56.05611,-21.06033c-22.52722,-0.20956 -45.15922,13.41156 -67.68644,0.10478c-22.52722,-13.202 -44.94967,-53.43667 -67.26733,-54.79878c-22.31767,-1.36211 -44.74011,35.93878 -67.05778,32.27156c-22.31767,-3.66722 -44.74011,-48.30256 -67.26733,-71.87756c-22.52722,-23.575 -45.15922,-26.08967 -67.68644,-7.22967c-22.52722,18.86 -44.94967,59.09467 -67.26733,78.79289c-22.31767,19.69822 -44.74011,19.06956 -67.26733,14.145c-22.52722,-4.92456 -45.15922,-13.93544 -67.68644,-12.36378c-22.52722,1.57167 -44.94967,13.72589 -67.26733,6.91533c-22.31767,-6.81056 -44.74011,-32.58589 -67.05778,-36.98656c-22.31767,-4.40067 -44.74011,12.78289 -67.26733,12.57333c-22.52722,-0.20956 -45.15922,-17.60267 -67.68644,-28.08044c-22.52722,-10.47778 -44.94967,-14.04022 -56.05611,-15.71667l-11.21122,-1.78122v-293.37778h11.21122c11.10644,0 33.52889,0 56.05611,0c22.52722,0 45.15922,0 67.68644,0c22.52722,0 44.94967,0 67.26733,0c22.31767,0 44.74011,0 67.05778,0c22.31767,0 44.74011,0 67.26733,0c22.52722,0 45.15922,0 67.68644,0c22.52722,0 44.94967,0 67.26733,0c22.31767,0 44.74011,0 67.26733,0c22.52722,0 45.15922,0 67.68644,0c22.52722,0 44.94967,0 67.26733,0c22.31767,0 44.74011,0 67.05778,0c22.31767,0 44.74011,0 67.26733,0c22.52722,0 45.15922,0 67.68644,0c22.52722,0 44.94967,0 56.05611,0h11.21122z" id="Path 1" fill="#ef0a0a"/><path d="M1357.14453,435.86146l-11.21122,0.20956c-11.10644,0.10478 -33.52889,0.52389 -56.05611,4.81978c-22.52722,4.40067 -45.15922,12.78289 -67.68644,1.46689c-22.52722,-11.42078 -44.94967,-42.435 -67.26733,-54.17011c-22.31767,-11.73511 -44.74011,-3.98156 -67.05778,0.73344c-22.31767,4.715 -44.74011,6.39144 -67.26733,9.53478c-22.52722,3.14333 -45.15922,7.75356 -67.68644,0.20956c-22.52722,-7.544 -44.94967,-27.03267 -67.26733,-33.52889c-22.31767,-6.49622 -44.74011,0.20956 -67.26733,6.81056c-22.52722,6.601 -45.15922,13.30678 -67.68644,10.16344c-22.52722,-3.14333 -44.94967,-16.13578 -67.26733,-2.51467c-22.31767,13.62111 -44.74011,53.85578 -67.05778,54.37967c-22.31767,0.52389 -44.74011,-38.663 -67.26733,-58.36122c-22.52722,-19.69822 -45.15922,-20.11733 -67.68644,-10.47778c-22.52722,9.63956 -44.94967,29.12822 -56.05611,38.97733l-11.21122,9.74433v-277.66111h11.21122c11.10644,0 33.52889,0 56.05611,0c22.52722,0 45.15922,0 67.68644,0c22.52722,0 44.94967,0 67.26733,0c22.31767,0 44.74011,0 67.05778,0c22.31767,0 44.74011,0 67.26733,0c22.52722,0 45.15922,0 67.68644,0c22.52722,0 44.94967,0 67.26733,0c22.31767,0 44.74011,0 67.26733,0c22.52722,0 45.15922,0 67.68644,0c22.52722,0 44.94967,0 67.26733,0c22.31767,0 44.74011,0 67.05778,0c22.31767,0 44.74011,0 67.26733,0c22.52722,0 45.15922,0 67.68644,0c22.52722,0 44.94967,0 56.05611,0h11.21122z" id="Path 1" fill="#e92909"/><path d="M1357.14453,404.42813l-11.21122,1.04778c-11.10644,1.04778 -33.52889,3.14333 -56.05611,5.55322c-22.52722,2.51467 -45.15922,5.23889 -67.68644,-0.52389c-22.52722,-5.76278 -44.94967,-20.01256 -67.26733,-23.36544c-22.31767,-3.35289 -44.74011,4.40067 -67.05778,-1.886c-22.31767,-6.28667 -44.74011,-26.61356 -67.26733,-40.33944c-22.52722,-13.83067 -45.15922,-21.16511 -67.68644,-9.32522c-22.52722,11.94467 -44.94967,42.95889 -67.26733,59.19944c-22.31767,16.24056 -44.74011,17.70744 -67.26733,4.61022c-22.52722,-13.09722 -45.15922,-40.75856 -67.68644,-39.18689c-22.52722,1.57167 -44.94967,32.37633 -67.26733,41.91111c-22.31767,9.63956 -44.74011,-1.886 -67.05778,-10.79211c-22.31767,-8.90611 -44.74011,-15.19278 -67.26733,-22.52722c-22.52722,-7.33444 -45.15922,-15.71667 -67.68644,-2.30511c-22.52722,13.51633 -44.94967,48.72167 -56.05611,66.42911l-11.21122,17.60267v-314.33333h11.21122c11.10644,0 33.52889,0 56.05611,0c22.52722,0 45.15922,0 67.68644,0c22.52722,0 44.94967,0 67.26733,0c22.31767,0 44.74011,0 67.05778,0c22.31767,0 44.74011,0 67.26733,0c22.52722,0 45.15922,0 67.68644,0c22.52722,0 44.94967,0 67.26733,0c22.31767,0 44.74011,0 67.26733,0c22.52722,0 45.15922,0 67.68644,0c22.52722,0 44.94967,0 67.26733,0c22.31767,0 44.74011,0 67.05778,0c22.31767,0 44.74011,0 67.26733,0c22.52722,0 45.15922,0 67.68644,0c22.52722,0 44.94967,0 56.05611,0h11.21122z" id="Path 1" fill="#e3390b"/><path d="M1357.14453,361.46924l-11.21122,0.83822c-11.10644,0.943 -33.52889,2.61944 -56.05611,5.44844c-22.52722,2.829 -45.15922,6.601 -67.68644,1.57167c-22.52722,-5.02933 -44.94967,-19.06956 -67.26733,-23.88933c-22.31767,-4.92456 -44.74011,-0.73344 -67.05778,3.24811c-22.31767,4.08633 -44.74011,7.85833 -67.26733,15.40233c-22.52722,7.544 -45.15922,18.65044 -67.68644,16.24056c-22.52722,-2.40989 -44.94967,-18.54567 -67.26733,-24.30844c-22.31767,-5.76278 -44.74011,-1.15256 -67.26733,6.81056c-22.52722,8.06789 -45.15922,19.59344 -67.68644,23.99411c-22.52722,4.29589 -44.94967,1.57167 -67.26733,-10.16344c-22.31767,-11.73511 -44.74011,-32.27156 -67.05778,-32.48111c-22.31767,-0.20956 -44.74011,20.11733 -67.26733,31.119c-22.52722,11.00167 -45.15922,12.67811 -67.68644,-4.08633c-22.52722,-16.76444 -44.94967,-51.96978 -56.05611,-69.67722l-11.21122,-17.60267v-147.73667h11.21122c11.10644,0 33.52889,0 56.05611,0c22.52722,0 45.15922,0 67.68644,0c22.52722,0 44.94967,0 67.26733,0c22.31767,0 44.74011,0 67.05778,0c22.31767,0 44.74011,0 67.26733,0c22.52722,0 45.15922,0 67.68644,0c22.52722,0 44.94967,0 67.26733,0c22.31767,0 44.74011,0 67.26733,0c22.52722,0 45.15922,0 67.68644,0c22.52722,0 44.94967,0 67.26733,0c22.31767,0 44.74011,0 67.05778,0c22.31767,0 44.74011,0 67.26733,0c22.52722,0 45.15922,0 67.68644,0c22.52722,0 44.94967,0 56.05611,0h11.21122z" id="Path 1" fill="#dd450e"/><path d="M1357.14453,343.65701l-11.21122,-2.30511c-11.10644,-2.20033 -33.52889,-6.81056 -56.05611,-18.96478c-22.52722,-12.259 -45.15922,-32.16678 -67.68644,-40.75856c-22.52722,-8.487 -44.94967,-5.76278 -67.26733,5.13411c-22.31767,10.79211 -44.74011,29.65211 -67.05778,29.65211c-22.31767,0 -44.74011,-18.86 -67.26733,-22.73678c-22.52722,-3.772 -45.15922,7.33444 -67.68644,5.76278c-22.52722,-1.57167 -44.94967,-15.82144 -67.26733,-13.41156c-22.31767,2.40989 -44.74011,21.689 -67.26733,23.78456c-22.52722,2.09556 -45.15922,-12.99244 -67.68644,-17.18356c-22.52722,-4.19111 -44.94967,2.51467 -67.26733,0.52389c-22.31767,-1.886 -44.74011,-12.36378 -67.05778,-16.76444c-22.31767,-4.29589 -44.74011,-2.61944 -67.26733,1.57167c-22.52722,4.19111 -45.15922,10.89689 -67.68644,8.06789c-22.52722,-2.829 -44.94967,-14.98322 -56.05611,-21.16511l-11.21122,-6.07711v-122.59h11.21122c11.10644,0 33.52889,0 56.05611,0c22.52722,0 45.15922,0 67.68644,0c22.52722,0 44.94967,0 67.26733,0c22.31767,0 44.74011,0 67.05778,0c22.31767,0 44.74011,0 67.26733,0c22.52722,0 45.15922,0 67.68644,0c22.52722,0 44.94967,0 67.26733,0c22.31767,0 44.74011,0 67.26733,0c22.52722,0 45.15922,0 67.68644,0c22.52722,0 44.94967,0 67.26733,0c22.31767,0 44.74011,0 67.05778,0c22.31767,0 44.74011,0 67.26733,0c22.52722,0 45.15922,0 67.68644,0c22.52722,0 44.94967,0 56.05611,0h11.21122z" id="Path 1" fill="#d74f12"/><path d="M1357.14453,308.03257l-11.21122,-8.38222c-11.10644,-8.38222 -33.52889,-25.14667 -56.05611,-29.65211c-22.52722,-4.61022 -45.15922,3.14333 -67.68644,9.43c-22.52722,6.28667 -44.94967,11.10644 -67.26733,2.40989c-22.31767,-8.69656 -44.74011,-31.119 -67.05778,-38.76778c-22.31767,-7.64878 -44.74011,-0.73344 -67.26733,8.38222c-22.52722,9.11567 -45.15922,20.22211 -67.68644,19.90778c-22.52722,-0.31433 -44.94967,-12.259 -67.26733,-13.41156c-22.31767,-1.25733 -44.74011,8.17267 -67.26733,15.50711c-22.52722,7.33444 -45.15922,12.57333 -67.68644,7.544c-22.52722,-5.13411 -44.94967,-20.43167 -67.26733,-31.95722c-22.31767,-11.52556 -44.74011,-19.27911 -67.05778,-20.11733c-22.31767,-0.83822 -44.74011,5.02933 -67.26733,8.59178c-22.52722,3.45767 -45.15922,4.50544 -67.68644,13.41156c-22.52722,8.90611 -44.94967,25.67056 -56.05611,34.05278l-11.21122,8.38222v-157.16667h11.21122c11.10644,0 33.52889,0 56.05611,0c22.52722,0 45.15922,0 67.68644,0c22.52722,0 44.94967,0 67.26733,0c22.31767,0 44.74011,0 67.05778,0c22.31767,0 44.74011,0 67.26733,0c22.52722,0 45.15922,0 67.68644,0c22.52722,0 44.94967,0 67.26733,0c22.31767,0 44.74011,0 67.26733,0c22.52722,0 45.15922,0 67.68644,0c22.52722,0 44.94967,0 67.26733,0c22.31767,0 44.74011,0 67.05778,0c22.31767,0 44.74011,0 67.26733,0c22.52722,0 45.15922,0 67.68644,0c22.52722,0 44.94967,0 56.05611,0h11.21122z" id="Path 1" fill="#d25718"/><path d="M1357.14453,195.92035l-11.21122,-1.04778c-11.10644,-1.04778 -33.52889,-3.14333 -56.05611,-4.92456c-22.52722,-1.67644 -45.15922,-3.14333 -67.68644,-3.66722c-22.52722,-0.52389 -44.94967,-0.10478 -67.26733,8.80133c-22.31767,8.90611 -44.74011,26.29922 -67.05778,36.98656c-22.31767,10.68733 -44.74011,14.45933 -67.26733,7.02011c-22.52722,-7.544 -45.15922,-26.404 -67.68644,-35.834c-22.52722,-9.43 -44.94967,-9.43 -67.26733,-7.02011c-22.31767,2.51467 -44.74011,7.33444 -67.26733,12.46856c-22.52722,5.02933 -45.15922,10.26822 -67.68644,14.145c-22.52722,3.772 -44.94967,6.28667 -67.26733,5.86756c-22.31767,-0.31433 -44.74011,-3.45767 -67.05778,-7.33444c-22.31767,-3.772 -44.74011,-8.38222 -67.26733,-5.34367c-22.52722,2.93378 -45.15922,13.41156 -67.68644,16.031c-22.52722,2.61944 -44.94967,-2.61944 -56.05611,-5.23889l-11.21122,-2.61944v-88.01333h11.21122c11.10644,0 33.52889,0 56.05611,0c22.52722,0 45.15922,0 67.68644,0c22.52722,0 44.94967,0 67.26733,0c22.31767,0 44.74011,0 67.05778,0c22.31767,0 44.74011,0 67.26733,0c22.52722,0 45.15922,0 67.68644,0c22.52722,0 44.94967,0 67.26733,0c22.31767,0 44.74011,0 67.26733,0c22.52722,0 45.15922,0 67.68644,0c22.52722,0 44.94967,0 67.26733,0c22.31767,0 44.74011,0 67.05778,0c22.31767,0 44.74011,0 67.26733,0c22.52722,0 45.15922,0 67.68644,0c22.52722,0 44.94967,0 56.05611,0h11.21122z" id="Path 1" fill="#cc5e1e"/><path d="M1357.14453,211.63701l-11.21122,-5.55322c-11.10644,-5.658 -33.52889,-16.76444 -56.05611,-24.518c-22.52722,-7.64878 -45.15922,-11.83989 -67.68644,-15.29756c-22.52722,-3.56244 -44.94967,-6.28667 -67.26733,0.52389c-22.31767,6.81056 -44.74011,23.15589 -67.05778,30.176c-22.31767,7.02011 -44.74011,4.50544 -67.26733,4.92456c-22.52722,0.31433 -45.15922,3.45767 -67.68644,0.83822c-22.52722,-2.61944 -44.94967,-11.00167 -67.26733,-14.87844c-22.31767,-3.772 -44.74011,-3.14333 -67.26733,-1.15256c-22.52722,1.886 -45.15922,5.02933 -67.68644,1.36211c-22.52722,-3.66722 -44.94967,-14.145 -67.26733,-17.07878c-22.31767,-3.03856 -44.74011,1.57167 -67.05778,5.76278c-22.31767,4.19111 -44.74011,7.96311 -67.26733,9.74433c-22.52722,1.78122 -45.15922,1.36211 -67.68644,-1.04778c-22.52722,-2.40989 -44.94967,-7.02011 -56.05611,-9.22044l-11.21122,-2.30511v-37.72h11.21122c11.10644,0 33.52889,0 56.05611,0c22.52722,0 45.15922,0 67.68644,0c22.52722,0 44.94967,0 67.26733,0c22.31767,0 44.74011,0 67.05778,0c22.31767,0 44.74011,0 67.26733,0c22.52722,0 45.15922,0 67.68644,0c22.52722,0 44.94967,0 67.26733,0c22.31767,0 44.74011,0 67.26733,0c22.52722,0 45.15922,0 67.68644,0c22.52722,0 44.94967,0 67.26733,0c22.31767,0 44.74011,0 67.05778,0c22.31767,0 44.74011,0 67.26733,0c22.52722,0 45.15922,0 67.68644,0c22.52722,0 44.94967,0 56.05611,0h11.21122z" id="Path 1" fill="#c76424"/></g></g></g></g></g></svg>